<svg id="mermaid-diagram" width="100%" xmlns="http://www.w3.org/2000/svg" style="max-width: 799px;" viewBox="0 0 799 465" role="graphics-document document" aria-roledescription="er"><style>#mermaid-diagram{font-family:Inter,sans-serif;font-size:16px;fill:#333;}#mermaid-diagram .error-icon{fill:#552222;}#mermaid-diagram .error-text{fill:#552222;stroke:#552222;}#mermaid-diagram .edge-thickness-normal{stroke-width:1px;}#mermaid-diagram .edge-thickness-thick{stroke-width:3.5px;}#mermaid-diagram .edge-pattern-solid{stroke-dasharray:0;}#mermaid-diagram .edge-thickness-invisible{stroke-width:0;fill:none;}#mermaid-diagram .edge-pattern-dashed{stroke-dasharray:3;}#mermaid-diagram .edge-pattern-dotted{stroke-dasharray:2;}#mermaid-diagram .marker{fill:#333333;stroke:#333333;}#mermaid-diagram .marker.cross{stroke:#333333;}#mermaid-diagram svg{font-family:Inter,sans-serif;font-size:16px;}#mermaid-diagram p{margin:0;}#mermaid-diagram .entityBox{fill:#ECECFF;stroke:#9370DB;}#mermaid-diagram .attributeBoxOdd{fill:#ffffff;stroke:#9370DB;}#mermaid-diagram .attributeBoxEven{fill:#f2f2f2;stroke:#9370DB;}#mermaid-diagram .relationshipLabelBox{fill:hsl(80, 100%, 96.2745098039%);opacity:0.7;background-color:hsl(80, 100%, 96.2745098039%);}#mermaid-diagram .relationshipLabelBox rect{opacity:0.5;}#mermaid-diagram .relationshipLine{stroke:#333333;}#mermaid-diagram .entityTitleText{text-anchor:middle;font-size:18px;fill:#333;}#mermaid-diagram #MD_PARENT_START{fill:#f5f5f5!important;stroke:#333333!important;stroke-width:1;}#mermaid-diagram #MD_PARENT_END{fill:#f5f5f5!important;stroke:#333333!important;stroke-width:1;}#mermaid-diagram :root{--mermaid-font-family:Inter,sans-serif;}</style><g/><defs><marker id="MD_PARENT_START" refX="0" refY="7" markerWidth="190" markerHeight="240" orient="auto"><path d="M 18,7 L9,13 L1,7 L9,1 Z"/></marker></defs><defs><marker id="MD_PARENT_END" refX="19" refY="7" markerWidth="20" markerHeight="28" orient="auto"><path d="M 18,7 L9,13 L1,7 L9,1 Z"/></marker></defs><defs><marker id="ONLY_ONE_START" refX="0" refY="9" markerWidth="18" markerHeight="18" orient="auto"><path stroke="gray" fill="none" d="M9,0 L9,18 M15,0 L15,18"/></marker></defs><defs><marker id="ONLY_ONE_END" refX="18" refY="9" markerWidth="18" markerHeight="18" orient="auto"><path stroke="gray" fill="none" d="M3,0 L3,18 M9,0 L9,18"/></marker></defs><defs><marker id="ZERO_OR_ONE_START" refX="0" refY="9" markerWidth="30" markerHeight="18" orient="auto"><circle stroke="gray" fill="white" cx="21" cy="9" r="6"/><path stroke="gray" fill="none" d="M9,0 L9,18"/></marker></defs><defs><marker id="ZERO_OR_ONE_END" refX="30" refY="9" markerWidth="30" markerHeight="18" orient="auto"><circle stroke="gray" fill="white" cx="9" cy="9" r="6"/><path stroke="gray" fill="none" d="M21,0 L21,18"/></marker></defs><defs><marker id="ONE_OR_MORE_START" refX="18" refY="18" markerWidth="45" markerHeight="36" orient="auto"><path stroke="gray" fill="none" d="M0,18 Q 18,0 36,18 Q 18,36 0,18 M42,9 L42,27"/></marker></defs><defs><marker id="ONE_OR_MORE_END" refX="27" refY="18" markerWidth="45" markerHeight="36" orient="auto"><path stroke="gray" fill="none" d="M3,9 L3,27 M9,18 Q27,0 45,18 Q27,36 9,18"/></marker></defs><defs><marker id="ZERO_OR_MORE_START" refX="18" refY="18" markerWidth="57" markerHeight="36" orient="auto"><circle stroke="gray" fill="white" cx="48" cy="18" r="6"/><path stroke="gray" fill="none" d="M0,18 Q18,0 36,18 Q18,36 0,18"/></marker></defs><defs><marker id="ZERO_OR_MORE_END" refX="39" refY="18" markerWidth="57" markerHeight="36" orient="auto"><circle stroke="gray" fill="white" cx="9" cy="18" r="6"/><path stroke="gray" fill="none" d="M21,18 Q39,0 57,18 Q39,36 21,18"/></marker></defs><path class="er relationshipLine" d="M243,82.417L216,92.848C189,103.278,135,124.139,108,142.903C81,161.667,81,178.333,81,186.667L81,195" marker-end="url(#ONLY_ONE_END)" marker-start="url(#ONLY_ONE_START)" style="stroke: gray; fill: none;"/><path class="er relationshipLine" d="M307.5,95L307.5,103.333C307.5,111.667,307.5,128.333,307.5,145C307.5,161.667,307.5,178.333,307.5,186.667L307.5,195" marker-end="url(#ONLY_ONE_END)" marker-start="url(#ONLY_ONE_START)" style="stroke: gray; fill: none;"/><path class="er relationshipLine" d="M372,83.689L397.167,93.908C422.333,104.126,472.667,124.563,497.833,143.115C523,161.667,523,178.333,523,186.667L523,195" marker-end="url(#ONLY_ONE_END)" marker-start="url(#ONLY_ONE_START)" style="stroke: gray; fill: none;"/><path class="er relationshipLine" d="M81,270L81,278.333C81,286.667,81,303.333,121.75,322.723C162.5,342.112,244,364.225,284.75,375.281L325.5,386.337" marker-end="url(#ZERO_OR_MORE_END)" marker-start="url(#ONE_OR_MORE_START)" style="stroke: gray; fill: none;"/><path class="er relationshipLine" d="M726,270L726,278.333C726,286.667,726,303.333,685.25,322.723C644.5,342.112,563,364.225,522.25,375.281L481.5,386.337" marker-end="url(#ZERO_OR_MORE_END)" marker-start="url(#ONLY_ONE_START)" style="stroke: gray; fill: none;"/><g id="entity-ITEMDESTOCK-d73a571a-42d0-5b7d-a581-b96626826f7a" transform="translate(243,20 )"><rect class="er entityBox" x="0" y="0" width="129" height="75"/><text class="er entityLabel" id="text-entity-ITEMDESTOCK-d73a571a-42d0-5b7d-a581-b96626826f7a" x="0" y="0" style="dominant-baseline: middle; text-anchor: middle; font-family: Inter, sans-serif; font-size: 12px;" transform="translate(64.5,37.5)">ITEM_DE_STOCK</text></g><g id="entity-MATERIAPRIMA-6588df02-c5d9-52aa-b691-505987c3c57c" transform="translate(20,195 )"><rect class="er entityBox" x="0" y="0" width="122" height="75"/><text class="er entityLabel" id="text-entity-MATERIAPRIMA-6588df02-c5d9-52aa-b691-505987c3c57c" x="0" y="0" style="dominant-baseline: middle; text-anchor: middle; font-family: Inter, sans-serif; font-size: 12px;" transform="translate(61,37.5)">MATERIA_PRIMA</text></g><g id="entity-SEMIELABORADO-8e86ac47-f204-5361-8aba-f149d727170b" transform="translate(242,195 )"><rect class="er entityBox" x="0" y="0" width="131" height="75"/><text class="er entityLabel" id="text-entity-SEMIELABORADO-8e86ac47-f204-5361-8aba-f149d727170b" x="0" y="0" style="dominant-baseline: middle; text-anchor: middle; font-family: Inter, sans-serif; font-size: 12px;" transform="translate(65.5,37.5)">SEMIELABORADO</text></g><g id="entity-TERMINADO-694fc325-a7dd-5f7d-a269-2477e7df7052" transform="translate(473,195 )"><rect class="er entityBox" x="0" y="0" width="100" height="75"/><text class="er entityLabel" id="text-entity-TERMINADO-694fc325-a7dd-5f7d-a269-2477e7df7052" x="0" y="0" style="dominant-baseline: middle; text-anchor: middle; font-family: Inter, sans-serif; font-size: 12px;" transform="translate(50,37.5)">TERMINADO</text></g><g id="entity-ORDENDECOMPRA-29998eb4-c3f4-5351-b4a0-b1eae16ccb03" transform="translate(325.5,370 )"><rect class="er entityBox" x="0" y="0" width="156" height="75"/><text class="er entityLabel" id="text-entity-ORDENDECOMPRA-29998eb4-c3f4-5351-b4a0-b1eae16ccb03" x="0" y="0" style="dominant-baseline: middle; text-anchor: middle; font-family: Inter, sans-serif; font-size: 12px;" transform="translate(78,37.5)">ORDEN_DE_COMPRA</text></g><g id="entity-PROVEEDOR-2e44950c-7cc3-5faa-ac9c-5d8b6f9554ef" transform="translate(673,195 )"><rect class="er entityBox" x="0" y="0" width="106" height="75"/><text class="er entityLabel" id="text-entity-PROVEEDOR-2e44950c-7cc3-5faa-ac9c-5d8b6f9554ef" x="0" y="0" style="dominant-baseline: middle; text-anchor: middle; font-family: Inter, sans-serif; font-size: 12px;" transform="translate(53,37.5)">PROVEEDOR</text></g><rect class="er relationshipLabelBox" x="142.13572692871094" y="114.67236328125" width="7" height="15"/><text class="er relationshipLabel" id="rel78" x="145.63572692871094" y="122.17236328125" style="text-anchor: middle; dominant-baseline: middle; font-family: Inter, sans-serif; font-size: 12px;">a</text><rect class="er relationshipLabelBox" x="304" y="137.5" width="7" height="15"/><text class="er relationshipLabel" id="rel79" x="307.5" y="145" style="text-anchor: middle; dominant-baseline: middle; font-family: Inter, sans-serif; font-size: 12px;">a</text><rect class="er relationshipLabelBox" x="460.468994140625" y="115.78689575195312" width="7" height="15"/><text class="er relationshipLabel" id="rel80" x="463.968994140625" y="123.28689575195312" style="text-anchor: middle; dominant-baseline: middle; font-family: Inter, sans-serif; font-size: 12px;">a</text><rect class="er relationshipLabelBox" x="184.47654724121094" y="339.86773681640625" width="7" height="15"/><text class="er relationshipLabel" id="rel81" x="187.97654724121094" y="347.36773681640625" style="text-anchor: middle; dominant-baseline: middle; font-family: Inter, sans-serif; font-size: 12px;">a</text><rect class="er relationshipLabelBox" x="615.5234985351562" y="339.8677062988281" width="7" height="15"/><text class="er relationshipLabel" id="rel82" x="619.0234985351562" y="347.3677062988281" style="text-anchor: middle; dominant-baseline: middle; font-family: Inter, sans-serif; font-size: 12px;">a</text></svg>