<svg id="mermaid-diagram" width="100%" xmlns="http://www.w3.org/2000/svg" style="max-width: 700px;" viewBox="0 0 700 500" role="graphics-document document" aria-roledescription="xychart"><style>#mermaid-diagram{font-family:Inter,sans-serif;font-size:16px;fill:#333;}#mermaid-diagram .error-icon{fill:#552222;}#mermaid-diagram .error-text{fill:#552222;stroke:#552222;}#mermaid-diagram .edge-thickness-normal{stroke-width:1px;}#mermaid-diagram .edge-thickness-thick{stroke-width:3.5px;}#mermaid-diagram .edge-pattern-solid{stroke-dasharray:0;}#mermaid-diagram .edge-thickness-invisible{stroke-width:0;fill:none;}#mermaid-diagram .edge-pattern-dashed{stroke-dasharray:3;}#mermaid-diagram .edge-pattern-dotted{stroke-dasharray:2;}#mermaid-diagram .marker{fill:#333333;stroke:#333333;}#mermaid-diagram .marker.cross{stroke:#333333;}#mermaid-diagram svg{font-family:Inter,sans-serif;font-size:16px;}#mermaid-diagram p{margin:0;}#mermaid-diagram :root{--mermaid-font-family:Inter,sans-serif;}</style><g/><g class="main"><rect width="700" height="500" class="background" fill="white"/><g class="chart-title"><text x="0" y="0" fill="#131300" font-size="20" dominant-baseline="middle" text-anchor="middle" transform="translate(350, 21.5) rotate(0)">% de errores</text></g><g class="plot"><g class="bar-plot-0"><rect x="35.400000000000006" y="67.32000000000002" width="91.19999999999999" height="399.67999999999995" fill="#ECECFF" stroke="#ECECFF" stroke-width="0"/><rect x="178.15" y="214.20000000000002" width="91.19999999999999" height="252.79999999999998" fill="#ECECFF" stroke="#ECECFF" stroke-width="0"/><rect x="320.9" y="336.59999999999997" width="91.19999999999999" height="130.40000000000003" fill="#ECECFF" stroke="#ECECFF" stroke-width="0"/><rect x="463.65" y="418.20000000000005" width="91.19999999999999" height="48.799999999999955" fill="#ECECFF" stroke="#ECECFF" stroke-width="0"/><rect x="606.4" y="442.68" width="91.19999999999999" height="24.319999999999993" fill="#ECECFF" stroke="#ECECFF" stroke-width="0"/></g></g><g class="bottom-axis"><g class="axis-line"><path d="M 33,468 L 700,468" fill="none" stroke="#131300" stroke-width="2"/></g><g class="label"><text x="0" y="0" fill="#131300" font-size="14" dominant-baseline="text-before-edge" text-anchor="middle" transform="translate(81, 479) rotate(0)">R Incorrectos</text><text x="0" y="0" fill="#131300" font-size="14" dominant-baseline="text-before-edge" text-anchor="middle" transform="translate(223.75, 479) rotate(0)">Omisiones</text><text x="0" y="0" fill="#131300" font-size="14" dominant-baseline="text-before-edge" text-anchor="middle" transform="translate(366.5, 479) rotate(0)">Inconsistencias</text><text x="0" y="0" fill="#131300" font-size="14" dominant-baseline="text-before-edge" text-anchor="middle" transform="translate(509.25, 479) rotate(0)">Ambigüedades</text><text x="0" y="0" fill="#131300" font-size="14" dominant-baseline="text-before-edge" text-anchor="middle" transform="translate(652, 479) rotate(0)">R de otro Prod</text></g><g class="ticks"><path d="M 81,469 L 81,474" fill="none" stroke="#131300" stroke-width="2"/><path d="M 223.75,469 L 223.75,474" fill="none" stroke="#131300" stroke-width="2"/><path d="M 366.5,469 L 366.5,474" fill="none" stroke="#131300" stroke-width="2"/><path d="M 509.25,469 L 509.25,474" fill="none" stroke="#131300" stroke-width="2"/><path d="M 652,469 L 652,474" fill="none" stroke="#131300" stroke-width="2"/></g></g><g class="left-axis"><g class="axisl-line"><path d="M 32,43 L 32,467 " fill="none" stroke="#131300" stroke-width="2"/></g><g class="label"><text x="0" y="0" fill="#131300" font-size="14" dominant-baseline="middle" text-anchor="end" transform="translate(21, 51) rotate(0)">50</text><text x="0" y="0" fill="#131300" font-size="14" dominant-baseline="middle" text-anchor="end" transform="translate(21, 91.79999999999998) rotate(0)">45</text><text x="0" y="0" fill="#131300" font-size="14" dominant-baseline="middle" text-anchor="end" transform="translate(21, 132.6) rotate(0)">40</text><text x="0" y="0" fill="#131300" font-size="14" dominant-baseline="middle" text-anchor="end" transform="translate(21, 173.4) rotate(0)">35</text><text x="0" y="0" fill="#131300" font-size="14" dominant-baseline="middle" text-anchor="end" transform="translate(21, 214.20000000000002) rotate(0)">30</text><text x="0" y="0" fill="#131300" font-size="14" dominant-baseline="middle" text-anchor="end" transform="translate(21, 255) rotate(0)">25</text><text x="0" y="0" fill="#131300" font-size="14" dominant-baseline="middle" text-anchor="end" transform="translate(21, 295.79999999999995) rotate(0)">20</text><text x="0" y="0" fill="#131300" font-size="14" dominant-baseline="middle" text-anchor="end" transform="translate(21, 336.59999999999997) rotate(0)">15</text><text x="0" y="0" fill="#131300" font-size="14" dominant-baseline="middle" text-anchor="end" transform="translate(21, 377.40000000000003) rotate(0)">10</text><text x="0" y="0" fill="#131300" font-size="14" dominant-baseline="middle" text-anchor="end" transform="translate(21, 418.20000000000005) rotate(0)">5</text><text x="0" y="0" fill="#131300" font-size="14" dominant-baseline="middle" text-anchor="end" transform="translate(21, 459) rotate(0)">0</text></g><g class="ticks"><path d="M 31,51 L 26,51" fill="none" stroke="#131300" stroke-width="2"/><path d="M 31,91.79999999999998 L 26,91.79999999999998" fill="none" stroke="#131300" stroke-width="2"/><path d="M 31,132.6 L 26,132.6" fill="none" stroke="#131300" stroke-width="2"/><path d="M 31,173.4 L 26,173.4" fill="none" stroke="#131300" stroke-width="2"/><path d="M 31,214.20000000000002 L 26,214.20000000000002" fill="none" stroke="#131300" stroke-width="2"/><path d="M 31,255 L 26,255" fill="none" stroke="#131300" stroke-width="2"/><path d="M 31,295.79999999999995 L 26,295.79999999999995" fill="none" stroke="#131300" stroke-width="2"/><path d="M 31,336.59999999999997 L 26,336.59999999999997" fill="none" stroke="#131300" stroke-width="2"/><path d="M 31,377.40000000000003 L 26,377.40000000000003" fill="none" stroke="#131300" stroke-width="2"/><path d="M 31,418.20000000000005 L 26,418.20000000000005" fill="none" stroke="#131300" stroke-width="2"/><path d="M 31,459 L 26,459" fill="none" stroke="#131300" stroke-width="2"/></g></g></g><g class="mermaid-tmp-group"/></svg>