<svg id="mermaid-diagram" width="100%" xmlns="http://www.w3.org/2000/svg" style="max-width: 1140px;" viewBox="0 -62 1140 352" role="graphics-document document" aria-roledescription="er"><style>#mermaid-diagram{font-family:Inter,sans-serif;font-size:16px;fill:#333;}#mermaid-diagram .error-icon{fill:#552222;}#mermaid-diagram .error-text{fill:#552222;stroke:#552222;}#mermaid-diagram .edge-thickness-normal{stroke-width:1px;}#mermaid-diagram .edge-thickness-thick{stroke-width:3.5px;}#mermaid-diagram .edge-pattern-solid{stroke-dasharray:0;}#mermaid-diagram .edge-thickness-invisible{stroke-width:0;fill:none;}#mermaid-diagram .edge-pattern-dashed{stroke-dasharray:3;}#mermaid-diagram .edge-pattern-dotted{stroke-dasharray:2;}#mermaid-diagram .marker{fill:#333333;stroke:#333333;}#mermaid-diagram .marker.cross{stroke:#333333;}#mermaid-diagram svg{font-family:Inter,sans-serif;font-size:16px;}#mermaid-diagram p{margin:0;}#mermaid-diagram .entityBox{fill:#ECECFF;stroke:#9370DB;}#mermaid-diagram .attributeBoxOdd{fill:#ffffff;stroke:#9370DB;}#mermaid-diagram .attributeBoxEven{fill:#f2f2f2;stroke:#9370DB;}#mermaid-diagram .relationshipLabelBox{fill:hsl(80, 100%, 96.2745098039%);opacity:0.7;background-color:hsl(80, 100%, 96.2745098039%);}#mermaid-diagram .relationshipLabelBox rect{opacity:0.5;}#mermaid-diagram .relationshipLine{stroke:#333333;}#mermaid-diagram .entityTitleText{text-anchor:middle;font-size:18px;fill:#333;}#mermaid-diagram #MD_PARENT_START{fill:#f5f5f5!important;stroke:#333333!important;stroke-width:1;}#mermaid-diagram #MD_PARENT_END{fill:#f5f5f5!important;stroke:#333333!important;stroke-width:1;}#mermaid-diagram :root{--mermaid-font-family:Inter,sans-serif;}</style><g/><defs><marker id="MD_PARENT_START" refX="0" refY="7" markerWidth="190" markerHeight="240" orient="auto"><path d="M 18,7 L9,13 L1,7 L9,1 Z"/></marker></defs><defs><marker id="MD_PARENT_END" refX="19" refY="7" markerWidth="20" markerHeight="28" orient="auto"><path d="M 18,7 L9,13 L1,7 L9,1 Z"/></marker></defs><defs><marker id="ONLY_ONE_START" refX="0" refY="9" markerWidth="18" markerHeight="18" orient="auto"><path stroke="gray" fill="none" d="M9,0 L9,18 M15,0 L15,18"/></marker></defs><defs><marker id="ONLY_ONE_END" refX="18" refY="9" markerWidth="18" markerHeight="18" orient="auto"><path stroke="gray" fill="none" d="M3,0 L3,18 M9,0 L9,18"/></marker></defs><defs><marker id="ZERO_OR_ONE_START" refX="0" refY="9" markerWidth="30" markerHeight="18" orient="auto"><circle stroke="gray" fill="white" cx="21" cy="9" r="6"/><path stroke="gray" fill="none" d="M9,0 L9,18"/></marker></defs><defs><marker id="ZERO_OR_ONE_END" refX="30" refY="9" markerWidth="30" markerHeight="18" orient="auto"><circle stroke="gray" fill="white" cx="9" cy="9" r="6"/><path stroke="gray" fill="none" d="M21,0 L21,18"/></marker></defs><defs><marker id="ONE_OR_MORE_START" refX="18" refY="18" markerWidth="45" markerHeight="36" orient="auto"><path stroke="gray" fill="none" d="M0,18 Q 18,0 36,18 Q 18,36 0,18 M42,9 L42,27"/></marker></defs><defs><marker id="ONE_OR_MORE_END" refX="27" refY="18" markerWidth="45" markerHeight="36" orient="auto"><path stroke="gray" fill="none" d="M3,9 L3,27 M9,18 Q27,0 45,18 Q27,36 9,18"/></marker></defs><defs><marker id="ZERO_OR_MORE_START" refX="18" refY="18" markerWidth="57" markerHeight="36" orient="auto"><circle stroke="gray" fill="white" cx="48" cy="18" r="6"/><path stroke="gray" fill="none" d="M0,18 Q18,0 36,18 Q18,36 0,18"/></marker></defs><defs><marker id="ZERO_OR_MORE_END" refX="39" refY="18" markerWidth="57" markerHeight="36" orient="auto"><circle stroke="gray" fill="white" cx="9" cy="18" r="6"/><path stroke="gray" fill="none" d="M21,18 Q39,0 57,18 Q39,36 21,18"/></marker></defs><path class="er relationshipLine" d="M70,95L70,103.333C70,111.667,70,128.333,70,145C70,161.667,70,178.333,70,186.667L70,195" marker-end="url(#ONE_OR_MORE_END)" marker-start="url(#ONLY_ONE_START)" style="stroke: gray; fill: none;"/><path class="er relationshipLine" d="M270,95L270,103.333C270,111.667,270,128.333,270,145C270,161.667,270,178.333,270,186.667L270,195" marker-end="url(#ZERO_OR_MORE_END)" marker-start="url(#ONLY_ONE_START)" style="stroke: gray; fill: none;"/><path class="er relationshipLine" d="M470,95L470,103.333C470,111.667,470,128.333,470,145C470,161.667,470,178.333,470,186.667L470,195" marker-end="url(#ONE_OR_MORE_END)" marker-start="url(#ONLY_ONE_START)" style="stroke: gray; fill: none;"/><path class="er relationshipLine" d="M670,95L670,103.333C670,111.667,670,128.333,670,145C670,161.667,670,178.333,670,186.667L670,195" marker-end="url(#ONE_OR_MORE_END)" marker-start="url(#ZERO_OR_ONE_START)" style="stroke: gray; fill: none;"/><path class="er relationshipLine" d="M870,95L870,103.333C870,111.667,870,128.333,870,145C870,161.667,870,178.333,870,186.667L870,195" marker-end="url(#ZERO_OR_MORE_END)" marker-start="url(#ZERO_OR_ONE_START)" style="stroke: gray; fill: none;"/><path class="er relationshipLine" d="M1070,95L1070,103.333C1070,111.667,1070,128.333,1070,145C1070,161.667,1070,178.333,1070,186.667L1070,195" marker-end="url(#ONE_OR_MORE_END)" marker-start="url(#ZERO_OR_ONE_START)" style="stroke: gray; fill: none;"/><g id="entity-A1-9b671760-54de-5b11-aaae-f129227c9134" transform="translate(20,20 )"><rect class="er entityBox" x="0" y="0" width="100" height="75"/><text class="er entityLabel" id="text-entity-A1-9b671760-54de-5b11-aaae-f129227c9134" x="0" y="0" style="dominant-baseline: middle; text-anchor: middle; font-family: Inter, sans-serif; font-size: 12px;" transform="translate(50,37.5)">A1</text></g><g id="entity-B1-0798dc8f-0ae7-5c11-8411-6eab186acabd" transform="translate(20,195 )"><rect class="er entityBox" x="0" y="0" width="100" height="75"/><text class="er entityLabel" id="text-entity-B1-0798dc8f-0ae7-5c11-8411-6eab186acabd" x="0" y="0" style="dominant-baseline: middle; text-anchor: middle; font-family: Inter, sans-serif; font-size: 12px;" transform="translate(50,37.5)">B1</text></g><g id="entity-A2-fd3e0a55-c51b-5d08-b94d-c599041846c6" transform="translate(220,20 )"><rect class="er entityBox" x="0" y="0" width="100" height="75"/><text class="er entityLabel" id="text-entity-A2-fd3e0a55-c51b-5d08-b94d-c599041846c6" x="0" y="0" style="dominant-baseline: middle; text-anchor: middle; font-family: Inter, sans-serif; font-size: 12px;" transform="translate(50,37.5)">A2</text></g><g id="entity-B2-73b1b0d5-ada9-54f2-83fb-b33b83148163" transform="translate(220,195 )"><rect class="er entityBox" x="0" y="0" width="100" height="75"/><text class="er entityLabel" id="text-entity-B2-73b1b0d5-ada9-54f2-83fb-b33b83148163" x="0" y="0" style="dominant-baseline: middle; text-anchor: middle; font-family: Inter, sans-serif; font-size: 12px;" transform="translate(50,37.5)">B2</text></g><g id="entity-A3-d69afa9c-2257-5c4e-80b5-e23da1b4d851" transform="translate(420,20 )"><rect class="er entityBox" x="0" y="0" width="100" height="75"/><text class="er entityLabel" id="text-entity-A3-d69afa9c-2257-5c4e-80b5-e23da1b4d851" x="0" y="0" style="dominant-baseline: middle; text-anchor: middle; font-family: Inter, sans-serif; font-size: 12px;" transform="translate(50,37.5)">A3</text></g><g id="entity-B3-7ae516bb-1930-56b5-8adf-c32d7be6a589" transform="translate(420,195 )"><rect class="er entityBox" x="0" y="0" width="100" height="75"/><text class="er entityLabel" id="text-entity-B3-7ae516bb-1930-56b5-8adf-c32d7be6a589" x="0" y="0" style="dominant-baseline: middle; text-anchor: middle; font-family: Inter, sans-serif; font-size: 12px;" transform="translate(50,37.5)">B3</text></g><g id="entity-A4-f140cb7a-1a4f-5f6d-bfd7-6cc507905dcd" transform="translate(620,20 )"><rect class="er entityBox" x="0" y="0" width="100" height="75"/><text class="er entityLabel" id="text-entity-A4-f140cb7a-1a4f-5f6d-bfd7-6cc507905dcd" x="0" y="0" style="dominant-baseline: middle; text-anchor: middle; font-family: Inter, sans-serif; font-size: 12px;" transform="translate(50,37.5)">A4</text></g><g id="entity-B4-4ddc29c8-e220-54dc-b8b9-3bd17a4a98d8" transform="translate(620,195 )"><rect class="er entityBox" x="0" y="0" width="100" height="75"/><text class="er entityLabel" id="text-entity-B4-4ddc29c8-e220-54dc-b8b9-3bd17a4a98d8" x="0" y="0" style="dominant-baseline: middle; text-anchor: middle; font-family: Inter, sans-serif; font-size: 12px;" transform="translate(50,37.5)">B4</text></g><g id="entity-A5-92b71e12-c793-5833-8ecd-c89ac17c593f" transform="translate(820,20 )"><rect class="er entityBox" x="0" y="0" width="100" height="75"/><text class="er entityLabel" id="text-entity-A5-92b71e12-c793-5833-8ecd-c89ac17c593f" x="0" y="0" style="dominant-baseline: middle; text-anchor: middle; font-family: Inter, sans-serif; font-size: 12px;" transform="translate(50,37.5)">A5</text></g><g id="entity-B5-0d5c6c8a-d9f9-5b5a-a36b-26e3246c2dc1" transform="translate(820,195 )"><rect class="er entityBox" x="0" y="0" width="100" height="75"/><text class="er entityLabel" id="text-entity-B5-0d5c6c8a-d9f9-5b5a-a36b-26e3246c2dc1" x="0" y="0" style="dominant-baseline: middle; text-anchor: middle; font-family: Inter, sans-serif; font-size: 12px;" transform="translate(50,37.5)">B5</text></g><g id="entity-A6-a05defa9-786a-55a4-b927-c8e212916946" transform="translate(1020,20 )"><rect class="er entityBox" x="0" y="0" width="100" height="75"/><text class="er entityLabel" id="text-entity-A6-a05defa9-786a-55a4-b927-c8e212916946" x="0" y="0" style="dominant-baseline: middle; text-anchor: middle; font-family: Inter, sans-serif; font-size: 12px;" transform="translate(50,37.5)">A6</text></g><g id="entity-B6-93e0ccda-6863-5e5d-a87d-834ecc1e5faf" transform="translate(1020,195 )"><rect class="er entityBox" x="0" y="0" width="100" height="75"/><text class="er entityLabel" id="text-entity-B6-93e0ccda-6863-5e5d-a87d-834ecc1e5faf" x="0" y="0" style="dominant-baseline: middle; text-anchor: middle; font-family: Inter, sans-serif; font-size: 12px;" transform="translate(50,37.5)">B6</text></g><rect class="er relationshipLabelBox" x="66.5" y="137.5" width="7" height="15"/><text class="er relationshipLabel" id="rel17" x="70" y="145" style="text-anchor: middle; dominant-baseline: middle; font-family: Inter, sans-serif; font-size: 12px;">a</text><rect class="er relationshipLabelBox" x="266.5" y="137.5" width="7" height="15"/><text class="er relationshipLabel" id="rel18" x="270" y="145" style="text-anchor: middle; dominant-baseline: middle; font-family: Inter, sans-serif; font-size: 12px;">a</text><rect class="er relationshipLabelBox" x="466.5" y="137.5" width="7" height="15"/><text class="er relationshipLabel" id="rel19" x="470" y="145" style="text-anchor: middle; dominant-baseline: middle; font-family: Inter, sans-serif; font-size: 12px;">a</text><rect class="er relationshipLabelBox" x="666.5" y="137.5" width="7" height="15"/><text class="er relationshipLabel" id="rel20" x="670" y="145" style="text-anchor: middle; dominant-baseline: middle; font-family: Inter, sans-serif; font-size: 12px;">a</text><rect class="er relationshipLabelBox" x="866.5" y="137.5" width="7" height="15"/><text class="er relationshipLabel" id="rel21" x="870" y="145" style="text-anchor: middle; dominant-baseline: middle; font-family: Inter, sans-serif; font-size: 12px;">a</text><rect class="er relationshipLabelBox" x="1066.5" y="137.5" width="7" height="15"/><text class="er relationshipLabel" id="rel22" x="1070" y="145" style="text-anchor: middle; dominant-baseline: middle; font-family: Inter, sans-serif; font-size: 12px;">a</text><text text-anchor="middle" x="570" y="-25" class="entityTitleText">Vinculación 1 a N (muchos)</text></svg>